<svg xmlns="http://www.w3.org/2000/svg" viewBox="0 0 600 600">
<defs>
<radialGradient id="rim" cx="50%" cy="50%" r="50%"><stop offset="86%" stop-color="#22292b"/><stop offset="100%" stop-color="#101517"/></radialGradient>
<g id="A">
<path d="M281.23,181.48 A120,120 0 0 1 318.77,181.48 L304.38,272.34 A28,28 0 0 0 295.62,272.34 Z" fill="#343b3d" stroke="#8d6d3f" stroke-width=".65"/>
<path d="M278.41,163.70 A138,138 0 0 1 321.59,163.70 L318.77,181.48 A120,120 0 0 0 281.23,181.48 Z" fill="#cf3b3f" stroke="#7c623b" stroke-width=".65"/>
<path d="M267.62,95.55 A207,207 0 0 1 332.38,95.55 L321.59,163.70 A138,138 0 0 0 278.41,163.70 Z" fill="#161c1e" stroke="#8d6d3f" stroke-width=".65"/>
<path d="M264.80,77.77 A225,225 0 0 1 335.20,77.77 L332.38,95.55 A207,207 0 0 0 267.62,95.55 Z" fill="#2f8a5e" stroke="#7c623b" stroke-width=".65"/>
</g>
<g id="B">
<path d="M281.23,181.48 A120,120 0 0 1 318.77,181.48 L304.38,272.34 A28,28 0 0 0 295.62,272.34 Z" fill="#161c1e" stroke="#8d6d3f" stroke-width=".65"/>
<path d="M278.41,163.70 A138,138 0 0 1 321.59,163.70 L318.77,181.48 A120,120 0 0 0 281.23,181.48 Z" fill="#2f8a5e" stroke="#7c623b" stroke-width=".65"/>
<path d="M267.62,95.55 A207,207 0 0 1 332.38,95.55 L321.59,163.70 A138,138 0 0 0 278.41,163.70 Z" fill="#343b3d" stroke="#8d6d3f" stroke-width=".65"/>
<path d="M264.80,77.77 A225,225 0 0 1 335.20,77.77 L332.38,95.55 A207,207 0 0 0 267.62,95.55 Z" fill="#cf3b3f" stroke="#7c623b" stroke-width=".65"/>
</g>
</defs>
<circle cx="300" cy="300" r="285" fill="url(#rim)" stroke="#d7a457" stroke-width="5"/>
<use href="#A" transform="rotate(0 300 300)"/><use href="#B" transform="rotate(18 300 300)"/><use href="#A" transform="rotate(36 300 300)"/><use href="#B" transform="rotate(54 300 300)"/><use href="#A" transform="rotate(72 300 300)"/><use href="#B" transform="rotate(90 300 300)"/><use href="#A" transform="rotate(108 300 300)"/><use href="#B" transform="rotate(126 300 300)"/><use href="#A" transform="rotate(144 300 300)"/><use href="#B" transform="rotate(162 300 300)"/><use href="#A" transform="rotate(180 300 300)"/><use href="#B" transform="rotate(198 300 300)"/><use href="#A" transform="rotate(216 300 300)"/><use href="#B" transform="rotate(234 300 300)"/><use href="#A" transform="rotate(252 300 300)"/><use href="#B" transform="rotate(270 300 300)"/><use href="#A" transform="rotate(288 300 300)"/><use href="#B" transform="rotate(306 300 300)"/><use href="#A" transform="rotate(324 300 300)"/><use href="#B" transform="rotate(342 300 300)"/>
<circle cx="300" cy="300" r="28" fill="#2f8a5e" stroke="#172022" stroke-width="2"/><circle cx="300" cy="300" r="13" fill="#d74746" stroke="#172022" stroke-width="1.5"/><circle cx="300" cy="300" r="225" fill="none" stroke="#0d1112" stroke-width="2"/>
<g transform="rotate(0 300 300)"><text x="300" y="40" fill="#e6b769" font-family="Arial Black,Arial,sans-serif" font-size="32" font-weight="900" text-anchor="middle" dominant-baseline="middle">20</text></g>
<g transform="rotate(18 300 300)"><text x="300" y="40" fill="#e6b769" font-family="Arial Black,Arial,sans-serif" font-size="32" font-weight="900" text-anchor="middle" dominant-baseline="middle">1</text></g>
<g transform="rotate(36 300 300)"><text x="300" y="40" fill="#e6b769" font-family="Arial Black,Arial,sans-serif" font-size="32" font-weight="900" text-anchor="middle" dominant-baseline="middle">18</text></g>
<g transform="rotate(54 300 300)"><text x="300" y="40" fill="#e6b769" font-family="Arial Black,Arial,sans-serif" font-size="32" font-weight="900" text-anchor="middle" dominant-baseline="middle">4</text></g>
<g transform="rotate(72 300 300)"><text x="300" y="40" fill="#e6b769" font-family="Arial Black,Arial,sans-serif" font-size="32" font-weight="900" text-anchor="middle" dominant-baseline="middle">13</text></g>
<g transform="rotate(90 300 300)"><text x="300" y="40" fill="#e6b769" font-family="Arial Black,Arial,sans-serif" font-size="32" font-weight="900" text-anchor="middle" dominant-baseline="middle">6</text></g>
<g transform="rotate(108 300 300)"><text x="300" y="40" fill="#e6b769" font-family="Arial Black,Arial,sans-serif" font-size="32" font-weight="900" text-anchor="middle" dominant-baseline="middle">10</text></g>
<g transform="rotate(126 300 300)"><text x="300" y="40" fill="#e6b769" font-family="Arial Black,Arial,sans-serif" font-size="32" font-weight="900" text-anchor="middle" dominant-baseline="middle">15</text></g>
<g transform="rotate(144 300 300)"><text x="300" y="40" fill="#e6b769" font-family="Arial Black,Arial,sans-serif" font-size="32" font-weight="900" text-anchor="middle" dominant-baseline="middle">2</text></g>
<g transform="rotate(162 300 300)"><text x="300" y="40" fill="#e6b769" font-family="Arial Black,Arial,sans-serif" font-size="32" font-weight="900" text-anchor="middle" dominant-baseline="middle">17</text></g>
<g transform="rotate(180 300 300)"><text x="300" y="40" fill="#e6b769" font-family="Arial Black,Arial,sans-serif" font-size="32" font-weight="900" text-anchor="middle" dominant-baseline="middle">3</text></g>
<g transform="rotate(198 300 300)"><text x="300" y="40" fill="#e6b769" font-family="Arial Black,Arial,sans-serif" font-size="32" font-weight="900" text-anchor="middle" dominant-baseline="middle">19</text></g>
<g transform="rotate(216 300 300)"><text x="300" y="40" fill="#e6b769" font-family="Arial Black,Arial,sans-serif" font-size="32" font-weight="900" text-anchor="middle" dominant-baseline="middle">7</text></g>
<g transform="rotate(234 300 300)"><text x="300" y="40" fill="#e6b769" font-family="Arial Black,Arial,sans-serif" font-size="32" font-weight="900" text-anchor="middle" dominant-baseline="middle">16</text></g>
<g transform="rotate(252 300 300)"><text x="300" y="40" fill="#e6b769" font-family="Arial Black,Arial,sans-serif" font-size="32" font-weight="900" text-anchor="middle" dominant-baseline="middle">8</text></g>
<g transform="rotate(270 300 300)"><text x="300" y="40" fill="#e6b769" font-family="Arial Black,Arial,sans-serif" font-size="32" font-weight="900" text-anchor="middle" dominant-baseline="middle">11</text></g>
<g transform="rotate(288 300 300)"><text x="300" y="40" fill="#e6b769" font-family="Arial Black,Arial,sans-serif" font-size="32" font-weight="900" text-anchor="middle" dominant-baseline="middle">14</text></g>
<g transform="rotate(306 300 300)"><text x="300" y="40" fill="#e6b769" font-family="Arial Black,Arial,sans-serif" font-size="32" font-weight="900" text-anchor="middle" dominant-baseline="middle">9</text></g>
<g transform="rotate(324 300 300)"><text x="300" y="40" fill="#e6b769" font-family="Arial Black,Arial,sans-serif" font-size="32" font-weight="900" text-anchor="middle" dominant-baseline="middle">12</text></g>
<g transform="rotate(342 300 300)"><text x="300" y="40" fill="#e6b769" font-family="Arial Black,Arial,sans-serif" font-size="32" font-weight="900" text-anchor="middle" dominant-baseline="middle">5</text></g>
<g transform="rotate(45 300 300)"><text x="300" y="56" fill="#879093" opacity=".58" font-family="Arial,Helvetica,sans-serif" font-size="11" font-weight="700" letter-spacing="2.4" text-anchor="middle">DARTARENA</text></g>
<g transform="rotate(135 300 300)"><text x="300" y="56" fill="#879093" opacity=".58" font-family="Arial,Helvetica,sans-serif" font-size="11" font-weight="700" letter-spacing="2.4" text-anchor="middle">DARTARENA</text></g>
<g transform="rotate(225 300 300)"><text x="300" y="56" fill="#879093" opacity=".58" font-family="Arial,Helvetica,sans-serif" font-size="11" font-weight="700" letter-spacing="2.4" text-anchor="middle">DARTARENA</text></g>
<g transform="rotate(315 300 300)"><text x="300" y="56" fill="#879093" opacity=".58" font-family="Arial,Helvetica,sans-serif" font-size="11" font-weight="700" letter-spacing="2.4" text-anchor="middle">DARTARENA</text></g>
<circle cx="300" cy="300" r="138" fill="none" stroke="#11191b" stroke-width="1.4"/><circle cx="300" cy="300" r="120" fill="none" stroke="#11191b" stroke-width="1.4"/>
</svg>